<svg width="24" height="24" viewBox="0 0 24 24" fill="none" xmlns="http://www.w3.org/2000/svg">
<g clip-path="url(#clip0_4218_611475)">
<path d="M3.89866 16.3582C4.04349 16.2134 4.24264 16.1289 4.45385 16.1289H23.608C23.958 16.1289 24.133 16.5513 23.8856 16.7988L20.1018 20.5825C19.957 20.7273 19.7579 20.8118 19.5466 20.8118H0.392496C0.0424828 20.8118 -0.132524 20.3894 0.114899 20.142L3.89866 16.3582Z" fill="url(#paint0_linear_4218_611475)"/>
<path d="M3.89866 2.22932C4.04953 2.08449 4.24867 2 4.45385 2H23.608C23.958 2 24.133 2.42243 23.8856 2.66985L20.1018 6.45361C19.957 6.59844 19.7579 6.68293 19.5466 6.68293H0.392496C0.0424828 6.68293 -0.132524 6.2605 0.114899 6.01308L3.89866 2.22932Z" fill="url(#paint1_linear_4218_611475)"/>
<path d="M20.1018 9.24885C19.957 9.10402 19.7579 9.01953 19.5466 9.01953H0.392496C0.0424828 9.01953 -0.132524 9.44196 0.114899 9.68938L3.89866 13.4731C4.04349 13.618 4.24264 13.7025 4.45385 13.7025H23.608C23.958 13.7025 24.133 13.28 23.8856 13.0326L20.1018 9.24885Z" fill="url(#paint2_linear_4218_611475)"/>
</g>
<defs>
<linearGradient id="paint0_linear_4218_611475" x1="21.7782" y1="-0.258642" x2="8.52203" y2="25.1323" gradientUnits="userSpaceOnUse">
<stop stop-color="#00FFA3"/>
<stop offset="1" stop-color="#DC1FFF"/>
</linearGradient>
<linearGradient id="paint1_linear_4218_611475" x1="15.9819" y1="-3.28648" x2="2.7257" y2="22.1045" gradientUnits="userSpaceOnUse">
<stop stop-color="#00FFA3"/>
<stop offset="1" stop-color="#DC1FFF"/>
</linearGradient>
<linearGradient id="paint2_linear_4218_611475" x1="18.8616" y1="-1.78185" x2="5.60542" y2="23.6091" gradientUnits="userSpaceOnUse">
<stop stop-color="#00FFA3"/>
<stop offset="1" stop-color="#DC1FFF"/>
</linearGradient>
<clipPath id="clip0_4218_611475">
<rect width="24" height="24" fill="white"/>
</clipPath>
</defs>
</svg>
